<svg width="30" height="30" viewBox="0 0 30 30" fill="none" xmlns="http://www.w3.org/2000/svg">
<path d="M6.51498 18.8888L3.15623 15.53C3.01578 15.3894 2.93689 15.1988 2.93689 15C2.93689 14.8013 3.01578 14.6106 3.15623 14.47L6.51498 11.1113C6.6556 10.9708 6.84623 10.8919 7.04498 10.8919C7.24373 10.8919 7.43435 10.9708 7.57498 11.1113L10.9337 14.47C11.0742 14.6106 11.1531 14.8013 11.1531 15C11.1531 15.1988 11.0742 15.3894 10.9337 15.53L7.57498 18.8888C7.43435 19.0292 7.24373 19.1081 7.04498 19.1081C6.84623 19.1081 6.6556 19.0292 6.51498 18.8888ZM14.47 26.8438L11.1112 23.485C11.0415 23.4154 10.9862 23.3326 10.9484 23.2416C10.9107 23.1505 10.8913 23.0529 10.8913 22.9544C10.8913 22.8558 10.9107 22.7582 10.9484 22.6672C10.9862 22.5761 11.0415 22.4934 11.1112 22.4238L14.47 19.065C14.6106 18.9246 14.8012 18.8457 15 18.8457C15.1987 18.8457 15.3894 18.9246 15.53 19.065L18.8887 22.4238C18.9585 22.4934 19.0138 22.5761 19.0515 22.6672C19.0893 22.7582 19.1087 22.8558 19.1087 22.9544C19.1087 23.0529 19.0893 23.1505 19.0515 23.2416C19.0138 23.3326 18.9585 23.4154 18.8887 23.485L15.53 26.8438C15.3894 26.9842 15.1987 27.0631 15 27.0631C14.8012 27.0631 14.6106 26.9842 14.47 26.8438ZM14.47 10.935L11.1112 7.57501C10.9708 7.43438 10.8919 7.24376 10.8919 7.04501C10.8919 6.84626 10.9708 6.65564 11.1112 6.51501L14.47 3.15626C14.6106 3.01581 14.8012 2.93692 15 2.93692C15.1987 2.93692 15.3894 3.01581 15.53 3.15626L18.8887 6.51501C19.0292 6.65564 19.1081 6.84626 19.1081 7.04501C19.1081 7.24376 19.0292 7.43438 18.8887 7.57501L15.53 10.935C15.3894 11.0755 15.1987 11.1544 15 11.1544C14.8012 11.1544 14.6106 11.0755 14.47 10.935ZM22.425 18.8888L19.0662 15.53C18.9258 15.3894 18.8469 15.1988 18.8469 15C18.8469 14.8013 18.9258 14.6106 19.0662 14.47L22.425 11.1113C22.5656 10.9708 22.7562 10.8919 22.955 10.8919C23.1537 10.8919 23.3444 10.9708 23.485 11.1113L26.8437 14.47C26.9842 14.6106 27.0631 14.8013 27.0631 15C27.0631 15.1988 26.9842 15.3894 26.8437 15.53L23.485 18.8888C23.3444 19.0292 23.1537 19.1081 22.955 19.1081C22.7562 19.1081 22.5656 19.0292 22.425 18.8888Z" stroke="#9EB2B2" stroke-width="1.875"/>
</svg>
