<svg width="30" height="30" viewBox="0 0 30 30" fill="none" xmlns="http://www.w3.org/2000/svg">
<path d="M15 3.75H11.25C10.2554 3.75 9.30161 4.14509 8.59835 4.84835C7.89509 5.55161 7.5 6.50544 7.5 7.5C7.5 8.49456 7.89509 9.44839 8.59835 10.1517C9.30161 10.8549 10.2554 11.25 11.25 11.25H15M15 3.75V11.25M15 3.75H18.75C19.7446 3.75 20.6984 4.14509 21.4017 4.84835C22.1049 5.55161 22.5 6.50544 22.5 7.5C22.5 8.49456 22.1049 9.44839 21.4017 10.1517C20.6984 10.8549 19.7446 11.25 18.75 11.25H15" stroke="#9EB2B2" stroke-width="1.875" stroke-linecap="round" stroke-linejoin="round"/>
<path d="M11.25 18.75C10.2554 18.75 9.30161 19.1451 8.59835 19.8483C7.89509 20.5516 7.5 21.5054 7.5 22.5C7.5 23.4946 7.89509 24.4484 8.59835 25.1517C9.30161 25.8549 10.2554 26.25 11.25 26.25C12.2446 26.25 13.1984 25.8549 13.9017 25.1517C14.6049 24.4484 15 23.4946 15 22.5V18.75M11.25 18.75H15M11.25 18.75C10.2554 18.75 9.30161 18.3549 8.59835 17.6517C7.89509 16.9484 7.5 15.9946 7.5 15C7.5 14.0054 7.89509 13.0516 8.59835 12.3483C9.30161 11.6451 10.2554 11.25 11.25 11.25H15V18.75M15 15C15 14.0054 15.3951 13.0516 16.0983 12.3483C16.8016 11.6451 17.7554 11.25 18.75 11.25C19.7446 11.25 20.6984 11.6451 21.4017 12.3483C22.1049 13.0516 22.5 14.0054 22.5 15C22.5 15.9946 22.1049 16.9484 21.4017 17.6517C20.6984 18.3549 19.7446 18.75 18.75 18.75C17.7554 18.75 16.8016 18.3549 16.0983 17.6517C15.3951 16.9484 15 15.9946 15 15Z" stroke="#9EB2B2" stroke-width="1.875" stroke-linecap="round" stroke-linejoin="round"/>
</svg>
