<svg width="125" height="138" viewBox="0 0 125 138" fill="none" xmlns="http://www.w3.org/2000/svg">
<g opacity="0.5">
<mask id="path-1-outside-1_47_237" maskUnits="userSpaceOnUse" x="25" y="2.98122e-07" width="89" height="132" fill="black">
<rect fill="white" x="25" y="2.98122e-07" width="89" height="132"/>
<path d="M26.76 73.68L26.76 62.832L93 62.832L93 71.568L40.104 71.568L79.08 94.032L79.08 98.928L40.104 121.392L93 121.392L93 130.224L26.76 130.224L26.76 119.088L66.12 96.432L26.76 73.68ZM44.04 11.1592L44.04 1.94325L103.368 28.3432C109.128 30.8393 112.392 35.6393 112.392 40.9193C112.392 44.7593 110.568 49.2713 107.688 52.1513L101.352 48.6953C103.176 47.0633 104.424 44.6633 104.424 42.1673C104.424 39.6713 103.176 37.4632 100.008 35.9272L92.712 32.3752L44.04 53.6873L44.04 44.1832L83.112 27.6712L44.04 11.1592Z"/>
</mask>
<path d="M26.76 73.68L25.76 73.68L25.76 74.257L26.2595 74.5458L26.76 73.68ZM26.76 62.832L26.76 61.832L25.76 61.832L25.76 62.832L26.76 62.832ZM93 62.832L94 62.832L94 61.832L93 61.832L93 62.832ZM93 71.568L93 72.568L94 72.568L94 71.568L93 71.568ZM40.104 71.568L40.104 70.568L36.3664 70.568L39.6046 72.4344L40.104 71.568ZM79.08 94.032L80.08 94.032L80.08 93.4541L79.5794 93.1656L79.08 94.032ZM79.08 98.928L79.5794 99.7944L80.08 99.5058L80.08 98.928L79.08 98.928ZM40.104 121.392L39.6046 120.526L36.3664 122.392L40.104 122.392L40.104 121.392ZM93 121.392L94 121.392L94 120.392L93 120.392L93 121.392ZM93 130.224L93 131.224L94 131.224L94 130.224L93 130.224ZM26.76 130.224L25.76 130.224L25.76 131.224L26.76 131.224L26.76 130.224ZM26.76 119.088L26.2611 118.221L25.76 118.51L25.76 119.088L26.76 119.088ZM66.12 96.432L66.6189 97.2987L68.1214 96.4338L66.6205 95.5662L66.12 96.432ZM27.76 73.68L27.76 62.832L25.76 62.832L25.76 73.68L27.76 73.68ZM26.76 63.832L93 63.832L93 61.832L26.76 61.832L26.76 63.832ZM92 62.832L92 71.568L94 71.568L94 62.832L92 62.832ZM93 70.568L40.104 70.568L40.104 72.568L93 72.568L93 70.568ZM39.6046 72.4344L78.5806 94.8984L79.5794 93.1656L40.6034 70.7016L39.6046 72.4344ZM78.08 94.032L78.08 98.928L80.08 98.928L80.08 94.032L78.08 94.032ZM78.5806 98.0616L39.6046 120.526L40.6034 122.258L79.5794 99.7944L78.5806 98.0616ZM40.104 122.392L93 122.392L93 120.392L40.104 120.392L40.104 122.392ZM92 121.392L92 130.224L94 130.224L94 121.392L92 121.392ZM93 129.224L26.76 129.224L26.76 131.224L93 131.224L93 129.224ZM27.76 130.224L27.76 119.088L25.76 119.088L25.76 130.224L27.76 130.224ZM27.2589 119.955L66.6189 97.2987L65.6211 95.5653L26.2611 118.221L27.2589 119.955ZM66.6205 95.5662L27.2604 72.8142L26.2595 74.5458L65.6195 97.2978L66.6205 95.5662ZM44.04 11.1592L43.04 11.1592L43.04 11.8223L43.6507 12.0804L44.04 11.1592ZM44.04 1.94325L44.4465 1.02962L43.04 0.403727L43.04 1.94325L44.04 1.94325ZM103.368 28.3432L102.961 29.2569L102.97 29.2608L103.368 28.3432ZM107.688 52.1513L107.209 53.0291L107.866 53.3874L108.395 52.8584L107.688 52.1513ZM101.352 48.6953L100.685 47.95L99.6294 48.8947L100.873 49.5731L101.352 48.6953ZM100.008 35.9272L99.5703 36.8264L99.5717 36.8271L100.008 35.9272ZM92.712 32.3752L93.1497 31.4761L92.7342 31.2739L92.3109 31.4592L92.712 32.3752ZM44.04 53.6873L43.04 53.6873L43.04 55.2168L44.4411 54.6033L44.04 53.6873ZM44.04 44.1832L43.6507 43.2621L43.04 43.5202L43.04 44.1832L44.04 44.1832ZM83.112 27.6712L83.5013 28.5924L85.6809 27.6712L83.5013 26.7501L83.112 27.6712ZM45.04 11.1592L45.04 1.94325L43.04 1.94325L43.04 11.1592L45.04 11.1592ZM43.6334 2.85688L102.961 29.2569L103.775 27.4296L44.4465 1.02962L43.6334 2.85688ZM102.97 29.2608C108.417 31.6208 111.392 36.0915 111.392 40.9193L113.392 40.9193C113.392 35.187 109.839 30.0577 103.766 27.4257L102.97 29.2608ZM111.392 40.9193C111.392 44.4935 109.674 48.7513 106.981 51.4441L108.395 52.8584C111.462 49.7912 113.392 45.025 113.392 40.9193L111.392 40.9193ZM108.167 51.2734L101.831 47.8174L100.873 49.5731L107.209 53.0291L108.167 51.2734ZM102.019 49.4405C104.021 47.6492 105.424 44.9904 105.424 42.1673L103.424 42.1673C103.424 44.3361 102.331 46.4773 100.685 47.95L102.019 49.4405ZM105.424 42.1673C105.424 40.7448 105.066 39.3699 104.235 38.1304C103.407 36.8965 102.151 35.8549 100.444 35.0274L99.5717 36.8271C101.033 37.5356 101.985 38.366 102.573 39.2441C103.158 40.1166 103.424 41.0937 103.424 42.1673L105.424 42.1673ZM100.446 35.0281L93.1497 31.4761L92.2743 33.2744L99.5703 36.8264L100.446 35.0281ZM92.3109 31.4592L43.6389 52.7712L44.4411 54.6033L93.1131 33.2913L92.3109 31.4592ZM45.04 53.6873L45.04 44.1833L43.04 44.1832L43.04 53.6873L45.04 53.6873ZM44.4293 45.1044L83.5013 28.5924L82.7227 26.7501L43.6507 43.2621L44.4293 45.1044ZM83.5013 26.7501L44.4293 10.2381L43.6507 12.0804L82.7227 28.5924L83.5013 26.7501Z" fill="#9EB2B2" mask="url(#path-1-outside-1_47_237)"/>
</g>
<path d="M93.432 117.854C93.432 121.562 91.92 125.306 89.508 127.61L87.024 125.846C89.004 123.974 90.48 120.986 90.48 117.854C90.48 114.578 88.824 111.986 86.412 111.986C83.352 111.986 82.488 116.054 81.948 118.43C81.048 122.606 79.032 126.818 74.64 126.818C70.5 126.818 67.728 123.146 67.728 117.962C67.728 114.47 68.988 111.518 70.86 109.79L73.308 111.374C71.868 112.67 70.68 115.226 70.68 117.998C70.68 121.13 72.264 123.434 74.532 123.434C77.268 123.434 78.312 119.978 78.816 117.494C79.284 115.082 80.904 108.602 86.268 108.602C90.516 108.602 93.432 112.634 93.432 117.854ZM93 104.936L67.08 104.936L67.08 101.84L93 101.84L93 104.936ZM93.432 88.0004C93.432 93.5804 89.292 97.7924 83.82 97.7924C78.348 97.7924 74.208 93.5804 74.208 88.0004C74.208 82.4564 78.348 78.2444 83.82 78.2444C89.292 78.2444 93.432 82.4564 93.432 88.0004ZM90.444 88.0004C90.444 84.2564 87.6 81.4484 83.82 81.4484C80.04 81.4484 77.196 84.2564 77.196 88.0004C77.196 91.7804 80.04 94.5884 83.82 94.5884C87.6 94.5884 90.444 91.7804 90.444 88.0004ZM93.468 62.7594C93.468 59.3034 95.34 56.8554 98.4 56.4954L99.228 59.6994C97.572 59.7714 96.492 61.2114 96.492 63.2994L96.492 70.0674C96.492 73.1274 94.728 75.1794 92.136 75.1794C90.408 75.1794 88.788 74.3154 87.996 72.9114C86.556 74.4594 84.504 75.4314 82.164 75.4314C77.628 75.4314 74.208 71.8314 74.208 67.0434C74.208 65.3514 74.64 63.8394 75.396 62.5434C73.452 62.1834 72.228 60.5994 72.228 58.3674L72.228 56.9634L75.108 56.9634L75.108 58.1874C75.108 59.5194 75.9 60.4194 77.124 60.4554C78.492 59.3034 80.22 58.6554 82.164 58.6554C86.7 58.6554 90.156 62.2914 90.156 67.0434C90.156 68.4834 89.868 69.7794 89.292 70.9314C89.76 71.6514 90.552 72.0834 91.344 72.0834C92.64 72.0834 93.468 71.0394 93.468 69.4914L93.468 62.7594ZM77.16 67.0434C77.16 70.0314 79.32 72.2274 82.164 72.2274C85.044 72.2274 87.204 69.9954 87.204 67.0434C87.204 64.0914 85.044 61.8594 82.164 61.8594C79.32 61.8594 77.16 64.0914 77.16 67.0434ZM74.64 39.0843L74.64 35.9883L93 35.9883L93 39.0843L89.688 39.0843C91.992 40.6323 93.432 43.1523 93.432 46.2123C93.432 51.4683 89.292 55.3923 83.82 55.3923C78.348 55.3923 74.208 51.4683 74.208 46.2123C74.208 43.1523 75.648 40.6323 77.952 39.0843L74.64 39.0843ZM90.444 45.6363C90.444 41.8923 87.6 39.0843 83.82 39.0843C80.04 39.0843 77.196 41.8923 77.196 45.6363C77.196 49.4163 80.04 52.2243 83.82 52.2243C87.6 52.2243 90.444 49.4163 90.444 45.6363ZM74.208 21.0016C74.208 16.5376 77.16 13.5496 81.66 13.5496L93 13.5496L93 16.6456L82.632 16.6456C79.356 16.6456 77.196 18.7336 77.196 22.0096C77.196 25.3936 79.392 27.6256 82.704 27.6256L93 27.6256L93 30.7216L74.64 30.7216L74.64 27.6256L77.448 27.6256C75.36 26.1856 74.208 23.8816 74.208 21.0016Z" fill="#9EB2B2"/>
</svg>
