<svg width="48" height="48" viewBox="0 0 48 48" fill="none" xmlns="http://www.w3.org/2000/svg">
<path d="M36.7501 12V31.5C36.7501 31.6989 36.671 31.8897 36.5304 32.0303C36.3897 32.171 36.199 32.25 36.0001 32.25C35.8011 32.25 35.6104 32.171 35.4697 32.0303C35.3291 31.8897 35.2501 31.6989 35.2501 31.5V13.8113L12.5307 36.5306C12.3899 36.6714 12.1991 36.7504 12.0001 36.7504C11.801 36.7504 11.6102 36.6714 11.4694 36.5306C11.3287 36.3899 11.2496 36.199 11.2496 36C11.2496 35.801 11.3287 35.6101 11.4694 35.4694L34.1888 12.75H16.5001C16.3011 12.75 16.1104 12.671 15.9697 12.5303C15.8291 12.3897 15.7501 12.1989 15.7501 12C15.7501 11.8011 15.8291 11.6103 15.9697 11.4697C16.1104 11.329 16.3011 11.25 16.5001 11.25H36.0001C36.199 11.25 36.3897 11.329 36.5304 11.4697C36.671 11.6103 36.7501 11.8011 36.7501 12Z" fill="#9EB2B2"/>
</svg>
