<svg width="30" height="30" viewBox="0 0 30 30" fill="none" xmlns="http://www.w3.org/2000/svg">
<path d="M12.3161 18.2913L4.56489 13.3588C4.21025 13.1329 3.91829 12.8213 3.71602 12.4527C3.51375 12.0841 3.40771 11.6704 3.40771 11.25C3.40771 10.8296 3.51375 10.4159 3.71602 10.0473C3.91829 9.67871 4.21025 9.36708 4.56489 9.14125L12.3149 4.20875C13.1173 3.69797 14.0487 3.42666 14.9999 3.42666C15.9511 3.42666 16.8825 3.69797 17.6849 4.20875L25.4349 9.14125C25.7895 9.36708 26.0815 9.67871 26.2838 10.0473C26.486 10.4159 26.5921 10.8296 26.5921 11.25C26.5921 11.6704 26.486 12.0841 26.2838 12.4527C26.0815 12.8213 25.7895 13.1329 25.4349 13.3588L17.6849 18.2913C16.8825 18.802 15.9511 19.0733 14.9999 19.0733C14.0487 19.0733 13.1185 18.802 12.3161 18.2913Z" stroke="#9EB2B2" stroke-width="1.875"/>
<path d="M22.8574 15L25.4361 16.6412C25.7908 16.8671 26.0827 17.1787 26.285 17.5473C26.4873 17.9159 26.5933 18.3296 26.5933 18.75C26.5933 19.1704 26.4873 19.5841 26.285 19.9527C26.0827 20.3213 25.7908 20.6329 25.4361 20.8588L17.6849 25.7912C16.8825 26.302 15.9511 26.5733 14.9999 26.5733C14.0487 26.5733 13.1173 26.302 12.3149 25.7912L4.56489 20.8588C4.21025 20.6329 3.91829 20.3213 3.71602 19.9527C3.51375 19.5841 3.40771 19.1704 3.40771 18.75C3.40771 18.3296 3.51375 17.9159 3.71602 17.5473C3.91829 17.1787 4.21025 16.8671 4.56489 16.6412L7.14239 15" stroke="#9EB2B2" stroke-width="1.875"/>
</svg>
