<svg width="30" height="30" viewBox="0 0 30 30" fill="none" xmlns="http://www.w3.org/2000/svg">
<path d="M24.4541 8.19727L26.25 6.47168V6.09375H20.0303L15.5977 17.1797L10.5557 6.09375H4.03418V6.47168L6.13184 9.00879C6.33691 9.19629 6.44238 9.47168 6.41602 9.74707V19.7168C6.48047 20.0771 6.36621 20.4434 6.11426 20.7041L3.75 23.584V23.9561H10.4473V23.5781L8.08594 20.707C7.95942 20.5786 7.86425 20.4227 7.80785 20.2514C7.75144 20.0802 7.73532 19.8982 7.76074 19.7197V11.0947L13.6406 23.9619H14.3232L19.3799 11.0947V21.3457C19.3799 21.6152 19.3799 21.6709 19.2041 21.8496L17.3848 23.6162V23.9941H26.209V23.6162L24.4541 21.8906C24.3018 21.7734 24.2227 21.5771 24.2549 21.3867V8.70117C24.2397 8.60703 24.2502 8.51053 24.2853 8.42185C24.3203 8.33317 24.3787 8.25558 24.4541 8.19727Z" fill="#9EB2B2"/>
</svg>
