<svg width="128" height="128" viewBox="0 0 128 128" fill="none" xmlns="http://www.w3.org/2000/svg">
<rect width="128" height="128" fill="black"/>
<mask id="path-2-outside-1_79_32" maskUnits="userSpaceOnUse" x="28.4553" y="28" width="97" height="68" fill="black">
<rect fill="white" x="28.4553" y="28" width="97" height="68"/>
<path d="M31.7857 94.422C32.5161 94.4742 33.0117 94.5524 33.2725 94.6568L33.2736 94.6567L33.4884 94.2281C33.5239 94.2104 33.5645 94.1912 33.6104 94.1705C33.4722 94.1817 33.3335 94.1872 33.1943 94.1872C32.8291 94.1872 32.49 94.1351 32.177 94.0307C31.8639 93.9786 31.4987 93.9264 31.0814 93.8742L30.6118 93.7177L30.4553 94.109C30.5597 94.2655 31.0031 94.3698 31.7857 94.422Z"/>
<path d="M37.5521 92.4569L37.845 92.4893C37.8876 92.3829 37.9336 92.2861 37.9827 92.199C37.8398 92.2843 37.6963 92.3703 37.5521 92.4569Z"/>
<path d="M40.9738 90.3206C41.0693 90.3183 41.1617 90.33 41.251 90.3554C41.4622 89.8812 41.8319 89.5651 42.3599 89.407C42.8462 89.2747 43.1475 89.0131 43.2637 88.6223C43.1798 88.6737 43.084 88.7288 42.9763 88.7876C42.4024 89.1006 42.0633 89.3615 41.959 89.5701H41.7242L40.9738 90.3206Z"/>
<path d="M43.6011 88.3796H43.7065C43.7986 88.2673 43.8955 88.1561 43.9975 88.0458C43.9535 88.0393 43.9001 88.0518 43.8371 88.0833C43.7849 88.1354 43.7328 88.1615 43.6806 88.1615C43.7299 88.2109 43.7034 88.2836 43.6011 88.3796Z"/>
<path d="M44.4409 87.6014C44.7645 87.2998 45.127 87.0059 45.5284 86.7199C46.3205 86.1403 46.9805 85.5871 47.5086 85.0602L47.8254 85.1392L47.9047 85.0602C48.1687 84.9021 48.3799 84.6386 48.5383 84.2698C48.7496 83.8483 49.04 83.6903 49.4097 83.7956L49.2512 83.1634C49.6209 83.058 50.1225 82.7155 50.7562 82.1359C51.3899 81.5036 51.8124 81.1875 52.0236 81.1875L52.1028 80.5552L52.182 80.6343V80.5552H52.5781C52.6309 80.2918 52.7101 80.0284 52.8157 79.7649C52.9213 79.5015 53.1589 79.4224 53.5286 79.5278C53.7926 79.0536 54.1095 78.5794 54.4791 78.1052C54.9016 77.631 55.2712 77.2095 55.588 76.8407V76.7616C55.2444 76.7616 54.879 76.7834 54.4917 76.827L54.3234 77.2057L53.6974 77.7535C53.3322 78.1187 52.967 78.51 52.6018 78.9273C52.2887 79.3447 52.2105 79.6316 52.367 79.7881C51.8975 80.362 51.3497 80.8316 50.7236 81.1967C50.0976 81.5619 49.7324 82.0054 49.628 82.5271C49.2107 82.788 48.6368 83.2836 47.9064 84.014C47.2282 84.7444 46.7326 85.2661 46.4195 85.5791C45.8457 86.153 45.4283 86.5442 45.1675 86.7529C44.9795 86.9409 44.7373 87.2237 44.4409 87.6014Z"/>
<path d="M56.7792 73.8945C56.8749 73.946 56.9531 74.0323 57.0138 74.1535L57.1722 73.7584L58.0436 73.8374V73.3632L58.2812 73.5213L59.2317 72.0987C59.707 71.4137 60.0766 70.9658 60.3407 70.7551V70.2018H60.8159V70.0438C61.0271 69.7803 61.212 69.5169 61.3704 69.2534C61.5288 68.9373 61.6872 68.6475 61.8456 68.3841C61.8456 68.1206 62.0041 67.7518 62.3209 67.2776C62.6906 66.7507 63.0074 66.5136 63.2714 66.5663C63.2714 66.5136 63.245 66.4609 63.1922 66.4082C63.1394 66.3029 63.113 66.2238 63.113 66.1711C63.113 65.8023 63.2714 65.6706 63.5883 65.776L63.6675 66.0921H63.7467L63.8259 66.0131V65.6179L63.5883 64.9856L64.3012 64.9066V64.2743L64.9348 64.1163V63.1679C65.1989 63.0098 65.4893 62.6146 65.8062 61.9824C65.8545 61.8997 65.9001 61.8202 65.943 61.7438C65.3826 62.4421 64.8223 63.1355 64.2619 63.8239C63.6359 64.5543 63.1402 65.2847 62.7751 66.0151C62.4099 66.7455 61.9142 67.502 61.2882 68.2845C60.9752 68.6497 60.5317 69.1975 59.9578 69.9279C59.384 70.6583 58.8883 71.18 58.471 71.493C58.5231 71.6495 58.3927 71.9104 58.0797 72.2756C57.8188 72.5886 57.6623 72.8494 57.6102 73.0581C57.558 73.0581 57.2971 73.319 56.8276 73.8407C56.8115 73.8586 56.7954 73.8765 56.7792 73.8945Z"/>
<path d="M77.7888 47.9536C78.276 47.3357 78.8798 46.7566 79.6001 46.2163C79.7566 46.112 80.0696 45.799 80.5392 45.2772C81.0087 44.7555 81.4782 44.2599 81.9478 43.7904C82.4173 43.3208 82.7042 43.0861 82.8086 43.0861C82.9129 42.8252 83.1738 42.5644 83.5911 42.3035C84.0085 42.0427 84.3215 41.8079 84.5302 41.5992C84.9476 41.234 85.3389 40.8427 85.7041 40.4254C86.1214 40.008 86.5388 39.6167 86.9562 39.2515C87.3735 38.9385 87.9996 38.5211 88.8343 37.9994C89.669 37.4777 90.269 37.0604 90.6342 36.7473L90.869 36.5908C90.3473 36.0691 89.6429 35.6257 88.756 35.2605C87.8691 34.8953 86.5388 34.6083 84.765 34.3997C84.1911 34.2953 83.5651 34.2432 82.8868 34.2432H80.9304C80.6696 34.2432 80.3827 34.2171 80.0696 34.1649C79.8088 34.0606 79.5479 33.9823 79.2871 33.9301C79.1306 34.0866 78.8697 34.1649 78.5045 34.1649H77.9567C77.8002 34.1127 77.6176 34.0606 77.4089 34.0084L77.2524 34.3214H77.0176C76.8611 34.3214 76.522 34.3475 76.0003 34.3997C75.4786 34.3997 74.9569 34.4257 74.4352 34.4779C73.9657 34.5301 73.7048 34.6344 73.6526 34.7909C73.3918 34.7909 73.1309 34.817 72.8701 34.8692C72.6092 34.8692 72.3484 34.8431 72.0875 34.7909C71.7745 35.104 71.0963 35.3387 70.0529 35.4952C69.0094 35.6518 68.0182 35.8083 67.0791 35.9648C66.1401 36.0691 65.6184 36.2517 65.514 36.5126C62.6446 36.9821 59.7231 37.9212 56.7493 39.3298C53.8278 40.6862 51.0888 42.4079 48.5325 44.4947C46.8814 45.8425 45.3827 47.31 44.0363 48.8972C43.8851 48.8742 43.7223 48.8628 43.5481 48.8628C43.1256 48.8628 42.756 48.9418 42.4392 49.0999C42.3111 49.0679 42.1903 49.0408 42.0767 49.0185C42.218 48.8399 42.3613 48.6623 42.5067 48.4857C44.0197 46.6598 45.5326 45.0946 47.0456 43.7904C47.7238 43.2165 48.4542 42.6948 49.2368 42.2253C50.0193 41.7036 50.7497 41.1819 51.4279 40.6601C51.5323 40.608 51.8192 40.4515 52.2887 40.1906C52.7583 39.8776 53.2278 39.5906 53.6974 39.3298C54.2191 39.0168 54.506 38.8342 54.5582 38.782C55.0277 38.6255 55.6538 38.3125 56.4363 37.8429C57.2189 37.3212 58.0536 36.7734 58.9405 36.1996C59.8796 35.6257 60.7404 35.1561 61.523 34.7909C62.3577 34.3736 63.0359 34.2171 63.5576 34.3214L63.7141 34.2432C63.975 33.9301 64.6532 33.591 65.7488 33.2258C66.8444 32.8606 68.0704 32.5215 69.4268 32.2085C70.8354 31.8955 72.1136 31.6607 73.2614 31.5042C74.4613 31.2955 75.296 31.2173 75.7655 31.2694L79.6001 30.9564C79.7044 30.9042 79.887 30.8781 80.1479 30.8781C80.5131 30.8781 80.9044 30.9303 81.3217 31.0347C81.7913 31.0868 82.1304 31.139 82.339 31.1912C82.5477 31.139 82.7303 31.1129 82.8868 31.1129C83.0955 31.0607 83.2781 31.0347 83.4346 31.0347C83.6955 31.0347 83.9303 31.0607 84.1389 31.1129C84.3998 31.1129 84.6346 31.139 84.8432 31.1912C84.9476 31.139 85.1041 31.1129 85.3128 31.1129C85.6258 31.1129 85.9388 31.1651 86.2519 31.2694C86.617 31.3216 86.904 31.3738 87.1127 31.4259C87.2692 31.2694 87.4518 31.1912 87.6605 31.1912C87.9213 31.1912 88.1561 31.2694 88.3648 31.4259C88.5734 31.5303 88.9386 31.5824 89.4603 31.5824C89.7734 31.5824 90.0603 31.6346 90.3212 31.739C90.582 31.8433 90.869 31.9216 91.182 31.9737L95.2513 33.3041L96.6599 34.3997L97.3642 34.0084C97.6251 33.8519 98.0163 33.591 98.538 33.2258C99.0597 32.8606 99.451 32.678 99.7119 32.678L101.355 31.739C101.616 31.6346 101.877 31.5564 102.138 31.5042C102.451 31.3999 102.738 31.2955 102.999 31.1912L104.251 30.7216C104.668 30.5651 105.085 30.4347 105.503 30.3304C105.868 30.226 106.207 30.0956 106.52 29.9391C106.885 29.7826 107.251 29.7304 107.616 29.7826C108.45 29.2609 109.024 29 109.337 29C109.598 29 109.859 29.0522 110.12 29.1565C110.433 29.2087 110.85 29.2869 111.372 29.3913H111.607C111.659 29.3391 111.894 29.313 112.311 29.313C112.885 29.313 113.537 29.3652 114.268 29.4695C114.998 29.5217 115.467 29.6 115.676 29.7043L116.459 29.9391V29.8608C116.667 29.8608 116.85 29.913 117.006 30.0173L117.476 30.1738C118.519 30.4869 119.485 30.8521 120.371 31.2694L121.545 31.9737L122.641 33.0693C123.215 33.5388 123.528 33.904 123.58 34.1649L123.267 34.4779L122.954 33.9301C122.641 33.6693 122.354 33.3823 122.093 33.0693C121.832 32.7563 121.519 32.4954 121.154 32.2868C120.371 31.765 119.485 31.5042 118.493 31.5042C117.502 31.5042 116.563 31.4781 115.676 31.4259L114.111 31.1912L112.624 31.5824L112.311 31.4259C112.155 31.5303 111.763 31.5824 111.137 31.5824C110.563 31.5303 110.303 31.5824 110.355 31.739C110.303 31.6868 110.224 31.6607 110.12 31.6607C110.068 31.6085 110.042 31.5564 110.042 31.5042C109.207 31.8694 108.607 32.1302 108.242 32.2868L107.537 32.5215C107.381 32.5737 107.12 32.6519 106.755 32.7563C106.442 32.8606 105.868 33.1215 105.033 33.5388C104.042 33.9562 103.051 34.3997 102.06 34.8692C101.12 35.3387 100.155 35.8083 99.1641 36.2778C99.9466 36.9039 100.651 37.6082 101.277 38.3907C101.747 38.8603 102.138 39.408 102.451 40.0341C102.503 40.0863 102.529 40.1906 102.529 40.3471C102.529 40.7123 102.633 40.9732 102.842 41.1297C103.051 41.2862 103.181 41.4949 103.233 41.7557C103.338 41.9644 103.364 42.1992 103.312 42.46C103.312 42.6687 103.338 42.9035 103.39 43.1643C103.39 43.2165 103.468 43.2948 103.625 43.3991C103.781 43.4513 103.859 43.5295 103.859 43.6339C103.912 43.7904 103.938 43.973 103.938 44.1817V44.6512C103.938 46.0076 103.625 47.5206 102.999 49.19C102.373 50.8073 101.512 52.242 100.416 53.4941C100.208 53.755 100.025 53.8593 99.8684 53.8072C99.7641 53.7028 99.5815 53.7811 99.3206 54.0419C99.1641 54.1463 98.9815 54.2506 98.7728 54.3549C98.5641 54.4593 98.4076 54.6158 98.3033 54.8245L97.0512 56.9374L96.9433 56.9882C96.6369 56.9982 96.344 57.0032 96.0644 57.0032H95.5892C95.4308 56.9505 95.2987 56.9242 95.1931 56.9242C95.1196 56.9242 95.0556 56.9274 95.0013 56.9338C95.3125 56.7355 95.6306 56.528 95.9556 56.3113C98.5641 53.4941 99.8684 50.6508 99.8684 47.7814C99.8684 47.051 99.7901 46.3467 99.6336 45.6685C99.5815 45.5642 99.5032 45.4598 99.3989 45.3555L99.2423 45.0425V44.9642C99.2423 44.8599 99.2684 44.7295 99.3206 44.5729C99.4249 44.4164 99.451 44.3121 99.3989 44.2599L98.9293 43.3208C98.7728 42.9035 98.6424 42.5905 98.538 42.3818C98.4859 42.2774 98.4598 42.147 98.4598 41.9905C98.4598 41.7818 98.4076 41.6253 98.3033 41.521C98.1989 41.3644 98.0685 41.234 97.912 41.1297C97.7555 41.0253 97.6251 40.9471 97.5207 40.8949C97.4685 40.7906 97.3642 40.7384 97.2077 40.7384L96.8947 40.5819C96.5295 40.1645 96.2425 39.7732 96.0339 39.408C95.8773 39.0429 95.5121 38.6777 94.9383 38.3125L92.8254 39.7993C92.3036 40.1645 92.0167 40.5819 91.9645 41.0514C91.9124 41.4688 91.5993 41.8601 91.0255 42.2253L89.7734 43.4774C89.669 43.5295 89.4864 43.5556 89.2256 43.5556L88.5213 44.3382L88.3648 44.5729L87.8952 44.4947L86.7214 45.512L86.2519 46.3728C85.8867 46.738 85.4954 47.1032 85.078 47.4684C84.7128 47.8336 84.3476 48.2249 83.9824 48.6423C83.7737 48.8509 83.539 49.0596 83.2781 49.2683C83.0173 49.4248 82.8347 49.6335 82.7303 49.8944V50.0509H82.6521C82.5999 49.9987 82.5216 49.9465 82.4173 49.8944C82.3651 49.8422 82.339 49.8422 82.339 49.8944C81.8173 50.8856 81.087 51.7725 80.1479 52.5551L79.8349 53.1028C79.6783 53.2072 79.4697 53.3115 79.2088 53.4159C79.0001 53.5202 78.8436 53.6506 78.7393 53.8072L78.7161 53.8613L78.6382 53.8419L78.4798 54.2371C78.2157 54.1844 77.9253 54.1053 77.6085 54C77.2916 53.8946 77.0804 53.6838 76.9748 53.3677C77.186 52.7354 77.3972 52.0505 77.6085 51.3128C77.8725 50.5225 78.0045 49.7848 78.0045 49.0999C78.0045 48.6508 77.9326 48.2687 77.7888 47.9536Z"/>
<path d="M75.6562 57.4755C75.2795 57.3662 75.1118 57.2088 75.153 57.0032C74.9945 57.1613 74.6777 57.6618 74.2024 58.5049C73.7272 59.2952 73.1991 60.1909 72.6182 61.192C72.578 61.2613 72.5381 61.3299 72.4984 61.3979L72.557 61.3197L73.8091 59.9111C74.1743 59.4938 74.5135 59.0764 74.8265 58.659C75.103 58.2442 75.3796 57.8497 75.6562 57.4755Z"/>
<path d="M67.1442 68.5533C67.004 68.6316 66.8748 68.6806 66.7567 68.7002L66.519 68.7792H66.4398V68.9373C66.4398 69.0954 66.387 69.2798 66.2814 69.4905C66.1758 69.6486 66.0174 69.7013 65.8062 69.6486C65.7005 70.2809 65.2517 70.8868 64.4596 71.4664C63.7203 72.046 63.2978 72.6519 63.1922 73.2842H63.5799C63.5983 73.2615 63.6169 73.2384 63.6359 73.2146C64.1054 72.6929 64.601 72.093 65.1227 71.4148C65.6444 70.6844 66.114 70.0322 66.5313 69.4583C66.7831 69.0808 66.9873 68.7791 67.1442 68.5533Z"/>
<path d="M72.7166 74.6487C72.9215 74.6619 73.1263 74.6812 73.3311 74.7068C73.8064 74.7068 74.2288 74.7331 74.5985 74.7858L74.6777 73.9164C74.6777 73.8875 74.6697 73.8665 74.6538 73.8535C74.7608 73.7995 74.8705 73.7431 74.983 73.6842C76.0786 73.0581 77.3828 72.3538 78.8958 71.5713C80.4087 70.7887 82.0521 70.0583 83.8259 69.3801C85.6519 68.6497 87.5039 68.1541 89.3821 67.8932H89.6951C89.7995 67.8411 89.8777 67.815 89.9299 67.815C90.6603 67.815 91.0255 67.9976 91.0255 68.3628C91.0255 68.8323 90.5038 69.0149 89.4603 68.9106C85.1824 70.2148 81.713 71.6495 79.0523 73.2146C76.4438 74.7276 74.7221 75.7971 73.8874 76.4231C73.47 76.7362 72.7657 77.3361 71.7745 78.223C70.8354 79.0578 69.9224 79.9707 69.0355 80.962C68.2008 82.0054 67.7052 82.9445 67.5487 83.7792C67.4965 83.9879 67.4704 84.2487 67.4704 84.5618C67.4704 85.3965 67.7834 85.9704 68.4095 86.2834C69.0355 86.6486 69.8442 86.8312 70.8354 86.8312C71.5136 86.8312 72.244 86.779 73.0266 86.6747C73.8091 86.5703 74.5917 86.4399 75.3743 86.2834C77.2002 85.6573 79.0262 84.9791 80.8522 84.2487C82.7303 83.5183 84.5563 82.6575 86.3301 81.6663L86.8779 81.1967C86.9822 81.1446 87.1909 81.0663 87.504 80.962C87.817 80.9098 88.1561 80.7794 88.5213 80.5707C88.6778 80.4664 88.8082 80.3098 88.9126 80.1012C89.0691 79.8403 89.2517 79.6316 89.4603 79.4751C89.7212 79.3186 89.9299 79.1882 90.0864 79.0838C90.2951 78.9273 90.5559 78.7969 90.869 78.6926C90.9733 78.6404 91.0776 78.536 91.182 78.3795C91.2863 78.223 91.3907 78.1448 91.495 78.1448C91.9124 77.7274 92.3036 77.2839 92.6688 76.8144C93.0862 76.3449 93.4514 75.8753 93.7644 75.4058C94.4948 74.4146 95.0687 73.4233 95.4861 72.4321C95.9034 71.3887 96.1121 70.3974 96.1121 69.4583C96.1121 68.2063 95.7208 67.1107 94.9383 66.1716C94.26 65.2847 93.1123 64.6326 91.495 64.2152C89.8777 63.7457 88.1561 63.5109 86.3301 63.5109C84.7128 63.5109 83.1477 63.6935 81.6347 64.0587C80.174 64.3717 79.0001 64.8673 78.1132 65.5455L77.8785 65.3108L82.5738 60.7719C83.1999 60.3546 84.0346 60.0415 85.078 59.8329C85.3076 59.7869 85.5397 59.7461 85.7744 59.7103C86.9614 59.9604 88.1736 60.0855 89.4108 60.0855C89.622 60.0855 89.7804 60.0592 89.886 60.0065L90.0445 60.0855C90.0445 60.1382 90.1501 60.1909 90.3613 60.2436C90.6253 60.2963 90.7838 60.3226 90.8366 60.3226C91.2062 60.3753 91.6023 60.4017 92.0247 60.4017C92.4472 60.349 92.8432 60.3753 93.2129 60.4807L94.1634 60.6388H95.2723C95.3203 60.6388 95.3687 60.6385 95.4174 60.6379C95.6541 60.7286 95.8856 60.8255 96.1121 60.9284C97.312 61.4502 98.225 62.0762 98.8511 62.8066C99.2684 63.3283 99.5554 63.8761 99.7119 64.45C99.9206 65.0238 100.025 65.6238 100.025 66.2499C100.025 67.1368 99.8423 68.0758 99.4771 69.0671C99.1119 70.0061 98.6424 70.9452 98.0685 71.8843C98.0163 71.9365 97.9642 72.0408 97.912 72.1973C97.912 72.3017 97.8598 72.3799 97.7555 72.4321C97.7033 72.4843 97.6251 72.5103 97.5207 72.5103C97.4164 72.5103 97.3381 72.5625 97.286 72.6668C97.1816 72.8234 97.1034 72.9799 97.0512 73.1364C96.999 73.2929 96.9208 73.4494 96.8164 73.6059C96.3469 74.232 95.8512 74.8319 95.3295 75.4058C94.86 75.9275 94.3905 76.3971 93.9209 76.8144C93.6079 77.1274 93.3731 77.4144 93.2166 77.6752C93.1123 77.8839 92.8775 78.1187 92.5123 78.3795C92.095 78.5882 91.6776 79.0056 91.2602 79.6316C90.895 80.2577 90.5298 80.7011 90.1646 80.962C89.956 81.0663 89.7473 81.2228 89.5386 81.4315C89.3821 81.6402 89.1995 81.7967 88.9908 81.9011L83.9824 85.6573C83.5129 86.0225 83.1216 86.2573 82.8086 86.3616C82.4956 86.466 82.1043 86.6486 81.6347 86.9094C80.8522 87.379 79.8609 87.8224 78.661 88.2398C77.5133 88.7093 76.1047 89.0223 74.4352 89.1789C73.6526 89.4397 72.8179 89.6223 71.931 89.7266C71.0963 89.8832 70.3137 89.9614 69.5833 89.9614C68.8529 89.9614 68.1747 89.8832 67.5487 89.7266C66.9748 89.6223 66.5313 89.4136 66.2183 89.1006C66.0618 88.9441 65.9835 88.605 65.9835 88.0833C65.6705 87.8746 65.4358 87.692 65.2792 87.5355C64.7575 86.9616 64.3923 86.4399 64.1837 85.9704C64.0271 85.553 63.9489 85.1617 63.9489 84.7965C63.9489 84.3792 64.0271 83.8575 64.1837 83.2314C64.288 82.6054 64.4967 82.0315 64.8097 81.5098C65.1749 81.0402 65.5401 80.7011 65.9053 80.4924C66.3227 80.2316 66.7139 79.9186 67.0791 79.5534C67.4443 79.1882 67.8356 78.9012 68.253 78.6926C68.5138 78.2752 68.6964 77.8839 68.8008 77.5187C68.9051 77.1535 69.1399 76.997 69.5051 77.0492V76.8927C69.7659 76.684 70.1833 76.371 70.7572 75.9536C71.331 75.5362 71.7223 75.3015 71.931 75.2493C72.0353 75.2493 72.1136 75.2232 72.1658 75.171C72.2179 75.171 72.2701 75.1189 72.3223 75.0145C72.3745 74.9102 72.4266 74.8319 72.4788 74.7798V74.7015C72.5536 74.6879 72.6329 74.6703 72.7166 74.6487Z"/>
<path d="M61.3115 75.7419C61.2771 75.7397 61.244 75.7371 61.212 75.7342C61.1592 75.8923 60.9215 76.1557 60.4991 76.5245C60.0766 76.8934 59.7598 77.1568 59.5486 77.3149V77.4729C59.6226 77.5468 59.6793 77.6092 59.7188 77.66C59.8486 77.5116 59.9805 77.3602 60.1143 77.2057C60.545 76.6757 60.944 76.1878 61.3115 75.7419Z"/>
<path d="M59.403 78.0194C59.3512 78.0239 59.2941 78.0262 59.2317 78.0262C58.9149 77.9735 58.73 77.9998 58.6772 78.1052C58.5188 78.5794 58.2812 79.0273 57.9643 79.4488C57.7003 79.8176 57.2515 79.9493 56.6178 79.8439L56.5386 80.081L56.7762 80.4762C56.4066 80.4762 56.0105 80.687 55.588 81.1085C55.2184 81.4773 54.9544 81.8198 54.7959 82.1359L54.6375 82.294L54.3999 82.373V82.4521C54.3999 82.6628 54.1095 83.058 53.5286 83.6376C52.9477 84.1644 52.2348 84.744 51.3899 85.3763C50.5978 85.9559 49.8321 86.4828 49.0928 86.957C48.4063 87.3785 47.9047 87.6156 47.5878 87.6683H47.5086V87.7473C47.5086 87.9054 47.1126 88.1952 46.3205 88.6167C45.5284 89.0382 44.7098 89.5124 43.8649 90.0393C43.02 90.5662 42.4656 91.0667 42.2015 91.5409C41.8319 91.8044 41.3566 92.0151 40.7757 92.1732C40.2477 92.2786 39.878 92.5157 39.6668 92.8845L39.5876 92.9635C39.5492 92.9635 39.5248 92.9774 39.5143 93.0052L39.6895 92.9351C39.9504 92.8308 40.3677 92.6482 40.9416 92.3874C41.5155 92.1265 42.0633 91.8135 42.585 91.4483C43.1589 91.1353 43.4719 90.9005 43.5241 90.744L43.8371 90.5875L45.637 89.6484C45.7935 89.4919 45.9761 89.3354 46.1848 89.1789C46.4456 89.0223 46.6804 88.8658 46.8891 88.7093L50.0976 87.0659C50.3584 86.9094 50.828 86.4921 51.5062 85.8139C52.1844 85.1356 52.5757 84.6922 52.68 84.4835C53.0974 84.2226 53.5408 83.9357 54.0104 83.6227C54.5321 83.3618 54.9234 83.101 55.1842 82.8401L57.4536 80.3359C57.4536 80.2838 57.7145 79.9447 58.2362 79.3186C58.6038 78.9176 58.9927 78.4846 59.403 78.0194Z"/>
<path d="M39.4118 93.0462C39.1201 93.0681 38.7834 93.1874 38.4017 93.404C38.5927 93.3973 38.7612 93.3454 38.907 93.2482L39.4118 93.0462Z"/>
<path d="M40.8427 50.6805H41.251C41.515 50.6805 41.7527 50.6015 41.9639 50.4434L42.6926 50.5889C42.4418 50.9263 42.1973 51.2687 41.959 51.616C40.1852 54.2767 39.0374 57.12 38.5157 60.1459C38.4635 60.3024 38.4374 60.485 38.4374 60.6937V61.1632C38.4374 61.6849 38.4635 62.2066 38.5157 62.7283C38.62 63.25 38.6461 63.6413 38.5939 63.9022C38.4896 64.0065 38.4113 64.0587 38.3592 64.0587C38.1505 63.9543 38.0201 63.7457 37.9679 63.4326C37.9157 63.1196 37.7592 62.9631 37.4984 62.9631L37.1853 63.1196C36.7158 62.8066 36.481 62.1805 36.481 61.2415V60.5372L36.6375 59.9111C37.0027 57.9808 37.707 56.0505 38.7505 54.1202C39.3735 52.9364 40.0709 51.7899 40.8427 50.6805Z"/>
</mask>
<path d="M31.7857 94.422C32.5161 94.4742 33.0117 94.5524 33.2725 94.6568L33.2736 94.6567L33.4884 94.2281C33.5239 94.2104 33.5645 94.1912 33.6104 94.1705C33.4722 94.1817 33.3335 94.1872 33.1943 94.1872C32.8291 94.1872 32.49 94.1351 32.177 94.0307C31.8639 93.9786 31.4987 93.9264 31.0814 93.8742L30.6118 93.7177L30.4553 94.109C30.5597 94.2655 31.0031 94.3698 31.7857 94.422Z" stroke="#9EB2B2" stroke-width="2" mask="url(#path-2-outside-1_79_32)"/>
<path d="M37.5521 92.4569L37.845 92.4893C37.8876 92.3829 37.9336 92.2861 37.9827 92.199C37.8398 92.2843 37.6963 92.3703 37.5521 92.4569Z" stroke="#9EB2B2" stroke-width="2" mask="url(#path-2-outside-1_79_32)"/>
<path d="M40.9738 90.3206C41.0693 90.3183 41.1617 90.33 41.251 90.3554C41.4622 89.8812 41.8319 89.5651 42.3599 89.407C42.8462 89.2747 43.1475 89.0131 43.2637 88.6223C43.1798 88.6737 43.084 88.7288 42.9763 88.7876C42.4024 89.1006 42.0633 89.3615 41.959 89.5701H41.7242L40.9738 90.3206Z" stroke="#9EB2B2" stroke-width="2" mask="url(#path-2-outside-1_79_32)"/>
<path d="M43.6011 88.3796H43.7065C43.7986 88.2673 43.8955 88.1561 43.9975 88.0458C43.9535 88.0393 43.9001 88.0518 43.8371 88.0833C43.7849 88.1354 43.7328 88.1615 43.6806 88.1615C43.7299 88.2109 43.7034 88.2836 43.6011 88.3796Z" stroke="#9EB2B2" stroke-width="2" mask="url(#path-2-outside-1_79_32)"/>
<path d="M44.4409 87.6014C44.7645 87.2998 45.127 87.0059 45.5284 86.7199C46.3205 86.1403 46.9805 85.5871 47.5086 85.0602L47.8254 85.1392L47.9047 85.0602C48.1687 84.9021 48.3799 84.6386 48.5383 84.2698C48.7496 83.8483 49.04 83.6903 49.4097 83.7956L49.2512 83.1634C49.6209 83.058 50.1225 82.7155 50.7562 82.1359C51.3899 81.5036 51.8124 81.1875 52.0236 81.1875L52.1028 80.5552L52.182 80.6343V80.5552H52.5781C52.6309 80.2918 52.7101 80.0284 52.8157 79.7649C52.9213 79.5015 53.1589 79.4224 53.5286 79.5278C53.7926 79.0536 54.1095 78.5794 54.4791 78.1052C54.9016 77.631 55.2712 77.2095 55.588 76.8407V76.7616C55.2444 76.7616 54.879 76.7834 54.4917 76.827L54.3234 77.2057L53.6974 77.7535C53.3322 78.1187 52.967 78.51 52.6018 78.9273C52.2887 79.3447 52.2105 79.6316 52.367 79.7881C51.8975 80.362 51.3497 80.8316 50.7236 81.1967C50.0976 81.5619 49.7324 82.0054 49.628 82.5271C49.2107 82.788 48.6368 83.2836 47.9064 84.014C47.2282 84.7444 46.7326 85.2661 46.4195 85.5791C45.8457 86.153 45.4283 86.5442 45.1675 86.7529C44.9795 86.9409 44.7373 87.2237 44.4409 87.6014Z" stroke="#9EB2B2" stroke-width="2" mask="url(#path-2-outside-1_79_32)"/>
<path d="M56.7792 73.8945C56.8749 73.946 56.9531 74.0323 57.0138 74.1535L57.1722 73.7584L58.0436 73.8374V73.3632L58.2812 73.5213L59.2317 72.0987C59.707 71.4137 60.0766 70.9658 60.3407 70.7551V70.2018H60.8159V70.0438C61.0271 69.7803 61.212 69.5169 61.3704 69.2534C61.5288 68.9373 61.6872 68.6475 61.8456 68.3841C61.8456 68.1206 62.0041 67.7518 62.3209 67.2776C62.6906 66.7507 63.0074 66.5136 63.2714 66.5663C63.2714 66.5136 63.245 66.4609 63.1922 66.4082C63.1394 66.3029 63.113 66.2238 63.113 66.1711C63.113 65.8023 63.2714 65.6706 63.5883 65.776L63.6675 66.0921H63.7467L63.8259 66.0131V65.6179L63.5883 64.9856L64.3012 64.9066V64.2743L64.9348 64.1163V63.1679C65.1989 63.0098 65.4893 62.6146 65.8062 61.9824C65.8545 61.8997 65.9001 61.8202 65.943 61.7438C65.3826 62.4421 64.8223 63.1355 64.2619 63.8239C63.6359 64.5543 63.1402 65.2847 62.7751 66.0151C62.4099 66.7455 61.9142 67.502 61.2882 68.2845C60.9752 68.6497 60.5317 69.1975 59.9578 69.9279C59.384 70.6583 58.8883 71.18 58.471 71.493C58.5231 71.6495 58.3927 71.9104 58.0797 72.2756C57.8188 72.5886 57.6623 72.8494 57.6102 73.0581C57.558 73.0581 57.2971 73.319 56.8276 73.8407C56.8115 73.8586 56.7954 73.8765 56.7792 73.8945Z" stroke="#9EB2B2" stroke-width="2" mask="url(#path-2-outside-1_79_32)"/>
<path d="M77.7888 47.9536C78.276 47.3357 78.8798 46.7566 79.6001 46.2163C79.7566 46.112 80.0696 45.799 80.5392 45.2772C81.0087 44.7555 81.4782 44.2599 81.9478 43.7904C82.4173 43.3208 82.7042 43.0861 82.8086 43.0861C82.9129 42.8252 83.1738 42.5644 83.5911 42.3035C84.0085 42.0427 84.3215 41.8079 84.5302 41.5992C84.9476 41.234 85.3389 40.8427 85.7041 40.4254C86.1214 40.008 86.5388 39.6167 86.9562 39.2515C87.3735 38.9385 87.9996 38.5211 88.8343 37.9994C89.669 37.4777 90.269 37.0604 90.6342 36.7473L90.869 36.5908C90.3473 36.0691 89.6429 35.6257 88.756 35.2605C87.8691 34.8953 86.5388 34.6083 84.765 34.3997C84.1911 34.2953 83.5651 34.2432 82.8868 34.2432H80.9304C80.6696 34.2432 80.3827 34.2171 80.0696 34.1649C79.8088 34.0606 79.5479 33.9823 79.2871 33.9301C79.1306 34.0866 78.8697 34.1649 78.5045 34.1649H77.9567C77.8002 34.1127 77.6176 34.0606 77.4089 34.0084L77.2524 34.3214H77.0176C76.8611 34.3214 76.522 34.3475 76.0003 34.3997C75.4786 34.3997 74.9569 34.4257 74.4352 34.4779C73.9657 34.5301 73.7048 34.6344 73.6526 34.7909C73.3918 34.7909 73.1309 34.817 72.8701 34.8692C72.6092 34.8692 72.3484 34.8431 72.0875 34.7909C71.7745 35.104 71.0963 35.3387 70.0529 35.4952C69.0094 35.6518 68.0182 35.8083 67.0791 35.9648C66.1401 36.0691 65.6184 36.2517 65.514 36.5126C62.6446 36.9821 59.7231 37.9212 56.7493 39.3298C53.8278 40.6862 51.0888 42.4079 48.5325 44.4947C46.8814 45.8425 45.3827 47.31 44.0363 48.8972C43.8851 48.8742 43.7223 48.8628 43.5481 48.8628C43.1256 48.8628 42.756 48.9418 42.4392 49.0999C42.3111 49.0679 42.1903 49.0408 42.0767 49.0185C42.218 48.8399 42.3613 48.6623 42.5067 48.4857C44.0197 46.6598 45.5326 45.0946 47.0456 43.7904C47.7238 43.2165 48.4542 42.6948 49.2368 42.2253C50.0193 41.7036 50.7497 41.1819 51.4279 40.6601C51.5323 40.608 51.8192 40.4515 52.2887 40.1906C52.7583 39.8776 53.2278 39.5906 53.6974 39.3298C54.2191 39.0168 54.506 38.8342 54.5582 38.782C55.0277 38.6255 55.6538 38.3125 56.4363 37.8429C57.2189 37.3212 58.0536 36.7734 58.9405 36.1996C59.8796 35.6257 60.7404 35.1561 61.523 34.7909C62.3577 34.3736 63.0359 34.2171 63.5576 34.3214L63.7141 34.2432C63.975 33.9301 64.6532 33.591 65.7488 33.2258C66.8444 32.8606 68.0704 32.5215 69.4268 32.2085C70.8354 31.8955 72.1136 31.6607 73.2614 31.5042C74.4613 31.2955 75.296 31.2173 75.7655 31.2694L79.6001 30.9564C79.7044 30.9042 79.887 30.8781 80.1479 30.8781C80.5131 30.8781 80.9044 30.9303 81.3217 31.0347C81.7913 31.0868 82.1304 31.139 82.339 31.1912C82.5477 31.139 82.7303 31.1129 82.8868 31.1129C83.0955 31.0607 83.2781 31.0347 83.4346 31.0347C83.6955 31.0347 83.9303 31.0607 84.1389 31.1129C84.3998 31.1129 84.6346 31.139 84.8432 31.1912C84.9476 31.139 85.1041 31.1129 85.3128 31.1129C85.6258 31.1129 85.9388 31.1651 86.2519 31.2694C86.617 31.3216 86.904 31.3738 87.1127 31.4259C87.2692 31.2694 87.4518 31.1912 87.6605 31.1912C87.9213 31.1912 88.1561 31.2694 88.3648 31.4259C88.5734 31.5303 88.9386 31.5824 89.4603 31.5824C89.7734 31.5824 90.0603 31.6346 90.3212 31.739C90.582 31.8433 90.869 31.9216 91.182 31.9737L95.2513 33.3041L96.6599 34.3997L97.3642 34.0084C97.6251 33.8519 98.0163 33.591 98.538 33.2258C99.0597 32.8606 99.451 32.678 99.7119 32.678L101.355 31.739C101.616 31.6346 101.877 31.5564 102.138 31.5042C102.451 31.3999 102.738 31.2955 102.999 31.1912L104.251 30.7216C104.668 30.5651 105.085 30.4347 105.503 30.3304C105.868 30.226 106.207 30.0956 106.52 29.9391C106.885 29.7826 107.251 29.7304 107.616 29.7826C108.45 29.2609 109.024 29 109.337 29C109.598 29 109.859 29.0522 110.12 29.1565C110.433 29.2087 110.85 29.2869 111.372 29.3913H111.607C111.659 29.3391 111.894 29.313 112.311 29.313C112.885 29.313 113.537 29.3652 114.268 29.4695C114.998 29.5217 115.467 29.6 115.676 29.7043L116.459 29.9391V29.8608C116.667 29.8608 116.85 29.913 117.006 30.0173L117.476 30.1738C118.519 30.4869 119.485 30.8521 120.371 31.2694L121.545 31.9737L122.641 33.0693C123.215 33.5388 123.528 33.904 123.58 34.1649L123.267 34.4779L122.954 33.9301C122.641 33.6693 122.354 33.3823 122.093 33.0693C121.832 32.7563 121.519 32.4954 121.154 32.2868C120.371 31.765 119.485 31.5042 118.493 31.5042C117.502 31.5042 116.563 31.4781 115.676 31.4259L114.111 31.1912L112.624 31.5824L112.311 31.4259C112.155 31.5303 111.763 31.5824 111.137 31.5824C110.563 31.5303 110.303 31.5824 110.355 31.739C110.303 31.6868 110.224 31.6607 110.12 31.6607C110.068 31.6085 110.042 31.5564 110.042 31.5042C109.207 31.8694 108.607 32.1302 108.242 32.2868L107.537 32.5215C107.381 32.5737 107.12 32.6519 106.755 32.7563C106.442 32.8606 105.868 33.1215 105.033 33.5388C104.042 33.9562 103.051 34.3997 102.06 34.8692C101.12 35.3387 100.155 35.8083 99.1641 36.2778C99.9466 36.9039 100.651 37.6082 101.277 38.3907C101.747 38.8603 102.138 39.408 102.451 40.0341C102.503 40.0863 102.529 40.1906 102.529 40.3471C102.529 40.7123 102.633 40.9732 102.842 41.1297C103.051 41.2862 103.181 41.4949 103.233 41.7557C103.338 41.9644 103.364 42.1992 103.312 42.46C103.312 42.6687 103.338 42.9035 103.39 43.1643C103.39 43.2165 103.468 43.2948 103.625 43.3991C103.781 43.4513 103.859 43.5295 103.859 43.6339C103.912 43.7904 103.938 43.973 103.938 44.1817V44.6512C103.938 46.0076 103.625 47.5206 102.999 49.19C102.373 50.8073 101.512 52.242 100.416 53.4941C100.208 53.755 100.025 53.8593 99.8684 53.8072C99.7641 53.7028 99.5815 53.7811 99.3206 54.0419C99.1641 54.1463 98.9815 54.2506 98.7728 54.3549C98.5641 54.4593 98.4076 54.6158 98.3033 54.8245L97.0512 56.9374L96.9433 56.9882C96.6369 56.9982 96.344 57.0032 96.0644 57.0032H95.5892C95.4308 56.9505 95.2987 56.9242 95.1931 56.9242C95.1196 56.9242 95.0556 56.9274 95.0013 56.9338C95.3125 56.7355 95.6306 56.528 95.9556 56.3113C98.5641 53.4941 99.8684 50.6508 99.8684 47.7814C99.8684 47.051 99.7901 46.3467 99.6336 45.6685C99.5815 45.5642 99.5032 45.4598 99.3989 45.3555L99.2423 45.0425V44.9642C99.2423 44.8599 99.2684 44.7295 99.3206 44.5729C99.4249 44.4164 99.451 44.3121 99.3989 44.2599L98.9293 43.3208C98.7728 42.9035 98.6424 42.5905 98.538 42.3818C98.4859 42.2774 98.4598 42.147 98.4598 41.9905C98.4598 41.7818 98.4076 41.6253 98.3033 41.521C98.1989 41.3644 98.0685 41.234 97.912 41.1297C97.7555 41.0253 97.6251 40.9471 97.5207 40.8949C97.4685 40.7906 97.3642 40.7384 97.2077 40.7384L96.8947 40.5819C96.5295 40.1645 96.2425 39.7732 96.0339 39.408C95.8773 39.0429 95.5121 38.6777 94.9383 38.3125L92.8254 39.7993C92.3036 40.1645 92.0167 40.5819 91.9645 41.0514C91.9124 41.4688 91.5993 41.8601 91.0255 42.2253L89.7734 43.4774C89.669 43.5295 89.4864 43.5556 89.2256 43.5556L88.5213 44.3382L88.3648 44.5729L87.8952 44.4947L86.7214 45.512L86.2519 46.3728C85.8867 46.738 85.4954 47.1032 85.078 47.4684C84.7128 47.8336 84.3476 48.2249 83.9824 48.6423C83.7737 48.8509 83.539 49.0596 83.2781 49.2683C83.0173 49.4248 82.8347 49.6335 82.7303 49.8944V50.0509H82.6521C82.5999 49.9987 82.5216 49.9465 82.4173 49.8944C82.3651 49.8422 82.339 49.8422 82.339 49.8944C81.8173 50.8856 81.087 51.7725 80.1479 52.5551L79.8349 53.1028C79.6783 53.2072 79.4697 53.3115 79.2088 53.4159C79.0001 53.5202 78.8436 53.6506 78.7393 53.8072L78.7161 53.8613L78.6382 53.8419L78.4798 54.2371C78.2157 54.1844 77.9253 54.1053 77.6085 54C77.2916 53.8946 77.0804 53.6838 76.9748 53.3677C77.186 52.7354 77.3972 52.0505 77.6085 51.3128C77.8725 50.5225 78.0045 49.7848 78.0045 49.0999C78.0045 48.6508 77.9326 48.2687 77.7888 47.9536Z" stroke="#9EB2B2" stroke-width="2" mask="url(#path-2-outside-1_79_32)"/>
<path d="M75.6562 57.4755C75.2795 57.3662 75.1118 57.2088 75.153 57.0032C74.9945 57.1613 74.6777 57.6618 74.2024 58.5049C73.7272 59.2952 73.1991 60.1909 72.6182 61.192C72.578 61.2613 72.5381 61.3299 72.4984 61.3979L72.557 61.3197L73.8091 59.9111C74.1743 59.4938 74.5135 59.0764 74.8265 58.659C75.103 58.2442 75.3796 57.8497 75.6562 57.4755Z" stroke="#9EB2B2" stroke-width="2" mask="url(#path-2-outside-1_79_32)"/>
<path d="M67.1442 68.5533C67.004 68.6316 66.8748 68.6806 66.7567 68.7002L66.519 68.7792H66.4398V68.9373C66.4398 69.0954 66.387 69.2798 66.2814 69.4905C66.1758 69.6486 66.0174 69.7013 65.8062 69.6486C65.7005 70.2809 65.2517 70.8868 64.4596 71.4664C63.7203 72.046 63.2978 72.6519 63.1922 73.2842H63.5799C63.5983 73.2615 63.6169 73.2384 63.6359 73.2146C64.1054 72.6929 64.601 72.093 65.1227 71.4148C65.6444 70.6844 66.114 70.0322 66.5313 69.4583C66.7831 69.0808 66.9873 68.7791 67.1442 68.5533Z" stroke="#9EB2B2" stroke-width="2" mask="url(#path-2-outside-1_79_32)"/>
<path d="M72.7166 74.6487C72.9215 74.6619 73.1263 74.6812 73.3311 74.7068C73.8064 74.7068 74.2288 74.7331 74.5985 74.7858L74.6777 73.9164C74.6777 73.8875 74.6697 73.8665 74.6538 73.8535C74.7608 73.7995 74.8705 73.7431 74.983 73.6842C76.0786 73.0581 77.3828 72.3538 78.8958 71.5713C80.4087 70.7887 82.0521 70.0583 83.8259 69.3801C85.6519 68.6497 87.5039 68.1541 89.3821 67.8932H89.6951C89.7995 67.8411 89.8777 67.815 89.9299 67.815C90.6603 67.815 91.0255 67.9976 91.0255 68.3628C91.0255 68.8323 90.5038 69.0149 89.4603 68.9106C85.1824 70.2148 81.713 71.6495 79.0523 73.2146C76.4438 74.7276 74.7221 75.7971 73.8874 76.4231C73.47 76.7362 72.7657 77.3361 71.7745 78.223C70.8354 79.0578 69.9224 79.9707 69.0355 80.962C68.2008 82.0054 67.7052 82.9445 67.5487 83.7792C67.4965 83.9879 67.4704 84.2487 67.4704 84.5618C67.4704 85.3965 67.7834 85.9704 68.4095 86.2834C69.0355 86.6486 69.8442 86.8312 70.8354 86.8312C71.5136 86.8312 72.244 86.779 73.0266 86.6747C73.8091 86.5703 74.5917 86.4399 75.3743 86.2834C77.2002 85.6573 79.0262 84.9791 80.8522 84.2487C82.7303 83.5183 84.5563 82.6575 86.3301 81.6663L86.8779 81.1967C86.9822 81.1446 87.1909 81.0663 87.504 80.962C87.817 80.9098 88.1561 80.7794 88.5213 80.5707C88.6778 80.4664 88.8082 80.3098 88.9126 80.1012C89.0691 79.8403 89.2517 79.6316 89.4603 79.4751C89.7212 79.3186 89.9299 79.1882 90.0864 79.0838C90.2951 78.9273 90.5559 78.7969 90.869 78.6926C90.9733 78.6404 91.0776 78.536 91.182 78.3795C91.2863 78.223 91.3907 78.1448 91.495 78.1448C91.9124 77.7274 92.3036 77.2839 92.6688 76.8144C93.0862 76.3449 93.4514 75.8753 93.7644 75.4058C94.4948 74.4146 95.0687 73.4233 95.4861 72.4321C95.9034 71.3887 96.1121 70.3974 96.1121 69.4583C96.1121 68.2063 95.7208 67.1107 94.9383 66.1716C94.26 65.2847 93.1123 64.6326 91.495 64.2152C89.8777 63.7457 88.1561 63.5109 86.3301 63.5109C84.7128 63.5109 83.1477 63.6935 81.6347 64.0587C80.174 64.3717 79.0001 64.8673 78.1132 65.5455L77.8785 65.3108L82.5738 60.7719C83.1999 60.3546 84.0346 60.0415 85.078 59.8329C85.3076 59.7869 85.5397 59.7461 85.7744 59.7103C86.9614 59.9604 88.1736 60.0855 89.4108 60.0855C89.622 60.0855 89.7804 60.0592 89.886 60.0065L90.0445 60.0855C90.0445 60.1382 90.1501 60.1909 90.3613 60.2436C90.6253 60.2963 90.7838 60.3226 90.8366 60.3226C91.2062 60.3753 91.6023 60.4017 92.0247 60.4017C92.4472 60.349 92.8432 60.3753 93.2129 60.4807L94.1634 60.6388H95.2723C95.3203 60.6388 95.3687 60.6385 95.4174 60.6379C95.6541 60.7286 95.8856 60.8255 96.1121 60.9284C97.312 61.4502 98.225 62.0762 98.8511 62.8066C99.2684 63.3283 99.5554 63.8761 99.7119 64.45C99.9206 65.0238 100.025 65.6238 100.025 66.2499C100.025 67.1368 99.8423 68.0758 99.4771 69.0671C99.1119 70.0061 98.6424 70.9452 98.0685 71.8843C98.0163 71.9365 97.9642 72.0408 97.912 72.1973C97.912 72.3017 97.8598 72.3799 97.7555 72.4321C97.7033 72.4843 97.6251 72.5103 97.5207 72.5103C97.4164 72.5103 97.3381 72.5625 97.286 72.6668C97.1816 72.8234 97.1034 72.9799 97.0512 73.1364C96.999 73.2929 96.9208 73.4494 96.8164 73.6059C96.3469 74.232 95.8512 74.8319 95.3295 75.4058C94.86 75.9275 94.3905 76.3971 93.9209 76.8144C93.6079 77.1274 93.3731 77.4144 93.2166 77.6752C93.1123 77.8839 92.8775 78.1187 92.5123 78.3795C92.095 78.5882 91.6776 79.0056 91.2602 79.6316C90.895 80.2577 90.5298 80.7011 90.1646 80.962C89.956 81.0663 89.7473 81.2228 89.5386 81.4315C89.3821 81.6402 89.1995 81.7967 88.9908 81.9011L83.9824 85.6573C83.5129 86.0225 83.1216 86.2573 82.8086 86.3616C82.4956 86.466 82.1043 86.6486 81.6347 86.9094C80.8522 87.379 79.8609 87.8224 78.661 88.2398C77.5133 88.7093 76.1047 89.0223 74.4352 89.1789C73.6526 89.4397 72.8179 89.6223 71.931 89.7266C71.0963 89.8832 70.3137 89.9614 69.5833 89.9614C68.8529 89.9614 68.1747 89.8832 67.5487 89.7266C66.9748 89.6223 66.5313 89.4136 66.2183 89.1006C66.0618 88.9441 65.9835 88.605 65.9835 88.0833C65.6705 87.8746 65.4358 87.692 65.2792 87.5355C64.7575 86.9616 64.3923 86.4399 64.1837 85.9704C64.0271 85.553 63.9489 85.1617 63.9489 84.7965C63.9489 84.3792 64.0271 83.8575 64.1837 83.2314C64.288 82.6054 64.4967 82.0315 64.8097 81.5098C65.1749 81.0402 65.5401 80.7011 65.9053 80.4924C66.3227 80.2316 66.7139 79.9186 67.0791 79.5534C67.4443 79.1882 67.8356 78.9012 68.253 78.6926C68.5138 78.2752 68.6964 77.8839 68.8008 77.5187C68.9051 77.1535 69.1399 76.997 69.5051 77.0492V76.8927C69.7659 76.684 70.1833 76.371 70.7572 75.9536C71.331 75.5362 71.7223 75.3015 71.931 75.2493C72.0353 75.2493 72.1136 75.2232 72.1658 75.171C72.2179 75.171 72.2701 75.1189 72.3223 75.0145C72.3745 74.9102 72.4266 74.8319 72.4788 74.7798V74.7015C72.5536 74.6879 72.6329 74.6703 72.7166 74.6487Z" stroke="#9EB2B2" stroke-width="2" mask="url(#path-2-outside-1_79_32)"/>
<path d="M61.3115 75.7419C61.2771 75.7397 61.244 75.7371 61.212 75.7342C61.1592 75.8923 60.9215 76.1557 60.4991 76.5245C60.0766 76.8934 59.7598 77.1568 59.5486 77.3149V77.4729C59.6226 77.5468 59.6793 77.6092 59.7188 77.66C59.8486 77.5116 59.9805 77.3602 60.1143 77.2057C60.545 76.6757 60.944 76.1878 61.3115 75.7419Z" stroke="#9EB2B2" stroke-width="2" mask="url(#path-2-outside-1_79_32)"/>
<path d="M59.403 78.0194C59.3512 78.0239 59.2941 78.0262 59.2317 78.0262C58.9149 77.9735 58.73 77.9998 58.6772 78.1052C58.5188 78.5794 58.2812 79.0273 57.9643 79.4488C57.7003 79.8176 57.2515 79.9493 56.6178 79.8439L56.5386 80.081L56.7762 80.4762C56.4066 80.4762 56.0105 80.687 55.588 81.1085C55.2184 81.4773 54.9544 81.8198 54.7959 82.1359L54.6375 82.294L54.3999 82.373V82.4521C54.3999 82.6628 54.1095 83.058 53.5286 83.6376C52.9477 84.1644 52.2348 84.744 51.3899 85.3763C50.5978 85.9559 49.8321 86.4828 49.0928 86.957C48.4063 87.3785 47.9047 87.6156 47.5878 87.6683H47.5086V87.7473C47.5086 87.9054 47.1126 88.1952 46.3205 88.6167C45.5284 89.0382 44.7098 89.5124 43.8649 90.0393C43.02 90.5662 42.4656 91.0667 42.2015 91.5409C41.8319 91.8044 41.3566 92.0151 40.7757 92.1732C40.2477 92.2786 39.878 92.5157 39.6668 92.8845L39.5876 92.9635C39.5492 92.9635 39.5248 92.9774 39.5143 93.0052L39.6895 92.9351C39.9504 92.8308 40.3677 92.6482 40.9416 92.3874C41.5155 92.1265 42.0633 91.8135 42.585 91.4483C43.1589 91.1353 43.4719 90.9005 43.5241 90.744L43.8371 90.5875L45.637 89.6484C45.7935 89.4919 45.9761 89.3354 46.1848 89.1789C46.4456 89.0223 46.6804 88.8658 46.8891 88.7093L50.0976 87.0659C50.3584 86.9094 50.828 86.4921 51.5062 85.8139C52.1844 85.1356 52.5757 84.6922 52.68 84.4835C53.0974 84.2226 53.5408 83.9357 54.0104 83.6227C54.5321 83.3618 54.9234 83.101 55.1842 82.8401L57.4536 80.3359C57.4536 80.2838 57.7145 79.9447 58.2362 79.3186C58.6038 78.9176 58.9927 78.4846 59.403 78.0194Z" stroke="#9EB2B2" stroke-width="2" mask="url(#path-2-outside-1_79_32)"/>
<path d="M39.4118 93.0462C39.1201 93.0681 38.7834 93.1874 38.4017 93.404C38.5927 93.3973 38.7612 93.3454 38.907 93.2482L39.4118 93.0462Z" stroke="#9EB2B2" stroke-width="2" mask="url(#path-2-outside-1_79_32)"/>
<path d="M40.8427 50.6805H41.251C41.515 50.6805 41.7527 50.6015 41.9639 50.4434L42.6926 50.5889C42.4418 50.9263 42.1973 51.2687 41.959 51.616C40.1852 54.2767 39.0374 57.12 38.5157 60.1459C38.4635 60.3024 38.4374 60.485 38.4374 60.6937V61.1632C38.4374 61.6849 38.4635 62.2066 38.5157 62.7283C38.62 63.25 38.6461 63.6413 38.5939 63.9022C38.4896 64.0065 38.4113 64.0587 38.3592 64.0587C38.1505 63.9543 38.0201 63.7457 37.9679 63.4326C37.9157 63.1196 37.7592 62.9631 37.4984 62.9631L37.1853 63.1196C36.7158 62.8066 36.481 62.1805 36.481 61.2415V60.5372L36.6375 59.9111C37.0027 57.9808 37.707 56.0505 38.7505 54.1202C39.3735 52.9364 40.0709 51.7899 40.8427 50.6805Z" stroke="#9EB2B2" stroke-width="2" mask="url(#path-2-outside-1_79_32)"/>
<path d="M22.0771 99C20.0946 99 18.2426 98.6869 16.521 98.0609C14.7993 97.487 13.4168 96.4958 12.3734 95.0872C11.33 93.6786 10.8083 91.8265 10.8083 89.531C10.8083 87.6528 11.33 85.9051 12.3734 84.2878C13.469 82.6705 14.7472 81.3663 16.2079 80.375C16.521 80.1142 16.8601 79.8533 17.2253 79.5925C17.6426 79.3316 18.0339 79.2012 18.3991 79.2012H18.5556C18.3991 79.5664 17.9817 80.0098 17.3035 80.5315C16.6775 81.0011 15.9732 81.6271 15.1906 82.4097C14.408 83.1922 13.7037 84.1574 13.0777 85.3052C12.5038 86.4529 12.2169 87.8093 12.2169 89.3745C12.2169 92.0352 12.9994 94.0177 14.5646 95.3219C16.1819 96.6262 18.2426 97.2783 20.7468 97.2783C21.7902 97.2783 22.8075 97.1479 23.7988 96.887C24.79 96.6262 25.7813 96.5479 26.7725 96.6523L26.8508 96.574C26.9551 96.4697 27.1116 96.3914 27.3203 96.3393C27.5811 96.3393 27.7898 96.3132 27.9463 96.261C28.1028 96.1045 28.442 95.8958 28.9637 95.6349C29.4854 95.4263 30.0332 95.2176 30.607 95.0089C31.1809 94.8524 31.5722 94.8002 31.7809 94.8524L32.0939 94.6959L32.2504 94.3046L33.5025 94.2263L33.7373 93.7568C33.946 93.6525 34.3372 93.496 34.9111 93.2873C35.485 93.0786 36.0328 92.8438 36.5545 92.583C37.0762 92.3221 37.3371 92.1134 37.3371 91.9569L38.0414 92.0352C38.25 91.5135 38.537 91.2265 38.9022 91.1744H39.0587C39.3195 90.9135 39.6847 90.6266 40.1543 90.3135C40.6238 89.9483 41.0412 89.8179 41.4064 89.9223C41.615 89.4527 41.9802 89.1397 42.5019 88.9832C43.0758 88.8267 43.3889 88.4876 43.441 87.9659H43.8323C44.3018 87.392 44.9018 86.8442 45.6322 86.3225C46.4148 85.7486 47.0669 85.2008 47.5886 84.6791L47.9016 84.7574L47.9799 84.6791C48.2407 84.5226 48.4494 84.2617 48.6059 83.8966C48.8146 83.4792 49.1015 83.3227 49.4667 83.427L49.3102 82.801C49.6754 82.6966 50.171 82.3575 50.7971 81.7836C51.4231 81.1576 51.8405 80.8446 52.0492 80.8446L52.1274 80.2185L52.2057 80.2968V80.2185H52.597C52.6491 79.9577 52.7274 79.6968 52.8317 79.436C52.9361 79.1751 53.1709 79.0969 53.536 79.2012C53.7969 78.7317 54.1099 78.2621 54.4751 77.7926C54.8925 77.323 55.2577 76.9057 55.5707 76.5405V76.4622C54.736 76.4622 53.7708 76.5927 52.6752 76.8535C51.5796 77.0622 50.6667 77.3752 49.9363 77.7926L50.0145 77.323H49.858C49.8058 77.5839 49.5972 77.7926 49.232 77.9491C48.8668 78.0534 48.5537 78.1056 48.2929 78.1056H48.1364V77.7926H48.0581C47.5364 78.4708 46.8321 78.7317 45.9452 78.5751L45.0061 79.0447L44.9279 79.5142L44.4583 79.436L44.3018 79.749L43.9106 79.5142C43.5975 79.8794 42.9193 80.2707 41.8759 80.6881C40.8325 81.0533 39.8412 81.4184 38.9022 81.7836C37.9631 82.0967 37.4675 82.3836 37.4153 82.6445C37.2066 82.6966 36.9458 82.7488 36.6328 82.801C36.3719 82.8531 36.1893 82.9836 36.085 83.1922L35.4589 83.6618C35.1459 83.6618 34.7024 83.8705 34.1286 84.2878C33.5547 84.7052 33.0069 85.1486 32.4852 85.6182C32.0156 86.0877 31.6765 86.4268 31.4679 86.6355V86.792C31.9374 87.0007 32.3548 87.079 32.7199 87.0268C32.3548 87.5485 31.8852 87.8094 31.3113 87.8094C30.6331 87.8094 30.1114 87.4702 29.7462 86.792C29.4332 86.0616 29.3028 85.4356 29.3549 84.9139V84.4443C29.5115 84.34 29.8245 84.0009 30.294 83.427C30.7636 82.801 31.0244 82.4097 31.0766 82.2532C31.2853 82.1488 31.7287 81.888 32.4069 81.4706C33.0851 81.0533 33.7373 80.6098 34.3633 80.1403C35.0415 79.6707 35.4067 79.3577 35.4589 79.2012C35.7719 79.2012 36.0589 79.149 36.3197 79.0447C36.6327 78.8882 36.9719 78.836 37.3371 78.8882V78.8099C37.4936 78.6534 37.8327 78.4708 38.3544 78.2621C38.9283 78.0013 39.4761 77.7665 39.9978 77.5578C40.5716 77.3491 40.9368 77.2709 41.0933 77.323C41.2499 77.1665 41.7976 76.9318 42.7367 76.6187C43.6758 76.3057 44.6149 76.0188 45.5539 75.7579C46.5452 75.4449 47.1191 75.3145 47.2756 75.3666C47.6929 75.2623 47.9799 75.158 48.1364 75.0536C48.2929 74.9493 48.6059 74.9493 49.0755 75.0536C49.1276 74.9493 49.1276 74.871 49.0755 74.8189C49.0755 74.7145 49.0755 74.6363 49.0755 74.5841H49.1537L50.7188 74.5058C51.1362 74.3493 51.7883 74.1667 52.6752 73.958C53.6143 73.7494 54.2925 73.6972 54.7099 73.8015C54.7099 73.7494 54.7621 73.7233 54.8664 73.7233C55.0229 73.7233 55.1794 73.7754 55.3359 73.8798C55.4924 73.932 55.649 73.958 55.8055 73.958C55.9098 73.6972 56.0924 73.6189 56.3533 73.7233C56.3533 73.6189 56.4054 73.5668 56.5098 73.5668C56.7185 73.5668 56.875 73.6711 56.9793 73.8798L57.1358 73.4885L57.9966 73.5668V73.0972L58.2314 73.2537C58.4401 72.9407 58.7531 72.4712 59.1705 71.8451C59.64 71.1669 60.0052 70.7235 60.2661 70.5148V69.967C60.5269 69.967 60.6573 69.967 60.6573 69.967H60.7356V69.8105C60.9443 69.5496 61.1269 69.2888 61.2834 69.0279C61.4399 68.7149 61.5964 68.428 61.7529 68.1671C61.7529 67.9062 61.9094 67.5411 62.2225 67.0715C62.5877 66.5498 62.9007 66.315 63.1615 66.3672C63.1615 66.315 63.1354 66.2629 63.0833 66.2107C63.0311 66.1064 63.005 66.0281 63.005 65.9759C63.005 65.6107 63.1615 65.4803 63.4746 65.5847L63.5528 65.8977H63.6311L63.7093 65.8194V65.4281L63.4746 64.8021L64.1789 64.7238V64.0978L64.8049 63.9413V63.0022C65.0658 62.8457 65.3527 62.4544 65.6657 61.8284C66.0309 61.2023 66.2396 60.7589 66.2918 60.498L66.6831 60.4198C66.7352 60.3154 66.7352 60.2111 66.6831 60.1067C66.6831 59.9502 66.6831 59.8459 66.6831 59.7937C67.2048 59.4285 67.5178 58.9851 67.6221 58.4634C67.8308 58.359 68.0395 58.1242 68.2482 57.7591C68.4569 57.3939 68.6134 57.1069 68.7177 56.8982C68.7177 56.6374 68.7699 56.4287 68.8742 56.2722C69.0307 56.0635 69.1351 55.8548 69.1872 55.6461C69.0307 55.594 68.6134 55.4896 67.9351 55.3331C67.2569 55.1766 66.9178 54.994 66.9178 54.7853H66.8396C66.7352 54.8897 66.5787 54.9418 66.37 54.9418C65.8483 54.9418 65.3788 54.7592 64.9614 54.394C64.5441 53.9767 64.1267 53.7158 63.7093 53.6115V53.6897C63.918 53.8984 63.9963 54.1071 63.9441 54.3158L62.692 53.8463L62.7703 53.5332L63.005 53.6115V53.5332L62.2225 53.2202L61.9877 53.6897L61.3616 53.2202C60.8921 53.1159 60.4487 53.0637 60.0313 53.0637C59.6139 53.0115 59.1966 52.8811 58.7792 52.6724C58.6749 52.7768 58.5444 52.8289 58.3879 52.8289C58.0749 52.8289 57.7619 52.6985 57.4488 52.4376C57.188 52.1246 56.9271 51.942 56.6663 51.8899C56.4576 52.2029 56.1707 52.3594 55.8055 52.3594L55.962 51.7333L55.649 51.6551L55.4924 52.1246C55.3881 52.0203 55.2577 51.9681 55.1012 51.9681L54.6316 51.6551L54.3969 51.8116H53.7708L53.8491 51.3421H53.7708L53.6926 51.4203C53.3795 51.5768 52.9883 51.6551 52.5187 51.6551C52.2057 51.6551 51.8927 51.629 51.5796 51.5768C51.2666 51.5247 50.9275 51.4725 50.5623 51.4203L50.4841 51.029C50.3276 51.0812 50.1449 51.0812 49.9363 51.029L49.858 50.9508L49.7015 51.3421C49.2841 51.2377 48.945 51.1855 48.6842 51.1855C48.4233 51.1855 48.0581 51.1855 47.5886 51.1855C46.9625 51.1855 46.3104 51.1073 45.6322 50.9508C45.0061 50.7421 44.4062 50.6378 43.8323 50.6378C43.5193 50.6378 43.2063 50.6117 42.8932 50.5595C42.6324 50.5073 42.3715 50.4552 42.1107 50.403C41.902 50.5595 41.6672 50.6378 41.4064 50.6378C41.1977 50.6378 40.989 50.6378 40.7803 50.6378C40.6238 50.5856 40.4412 50.5334 40.2325 50.4812L40.1543 50.7943H39.9195C39.763 50.7421 39.4239 50.7421 38.9022 50.7943C38.3805 50.7943 37.8588 50.8464 37.3371 50.9508C36.8675 51.003 36.6067 51.1073 36.5545 51.2638C36.3458 51.2638 36.111 51.2899 35.8502 51.3421C35.5893 51.3421 35.3285 51.316 35.0676 51.2638C34.8068 51.5768 34.1546 51.8116 33.1112 51.9681C32.12 52.1246 31.1548 52.255 30.2158 52.3594C29.2767 52.4637 28.7811 52.6463 28.7289 52.9072C25.9638 53.4289 23.2249 54.394 20.512 55.8027C17.7991 57.1591 15.3471 58.8807 13.156 60.9675C10.9648 63.0544 9.19098 65.4281 7.83454 68.0888C6.53028 70.7495 5.87814 73.5928 5.87814 76.6187C5.87814 77.297 5.98249 78.0013 6.19117 78.7317C6.39985 79.462 6.50419 80.0098 6.50419 80.375C6.50419 80.4794 6.45202 80.5315 6.34768 80.5315C6.139 80.4272 5.98249 80.2185 5.87814 79.9055C5.7738 79.5403 5.56512 79.3577 5.2521 79.3577L5.01733 79.5925C4.54779 79.2794 4.26085 78.8099 4.15651 78.1839C4.05217 77.5056 4 76.9057 4 76.384C4 74.4537 4.36519 72.5233 5.09558 70.593C5.82597 68.6105 6.76505 66.7324 7.9128 64.9586C9.06055 63.1326 10.2605 61.5414 11.5126 60.185C12.0865 59.6111 12.7125 59.0894 13.3907 58.6199C14.0689 58.1503 14.7472 57.6547 15.4254 57.133C15.5297 57.0808 15.7906 56.9243 16.2079 56.6635C16.6253 56.3504 17.0427 56.0635 17.46 55.8027C17.9296 55.4896 18.1643 55.307 18.1643 55.2549C18.7382 55.0462 19.599 54.6288 20.7468 54.0028C21.8945 53.3767 23.0684 52.8028 24.2683 52.2811C25.4682 51.7594 26.4073 51.5507 27.0855 51.6551H27.242C27.4507 51.3421 28.155 51.029 29.3549 50.716C30.607 50.403 32.0156 50.1161 33.5808 49.8552C35.1981 49.5943 36.6849 49.4117 38.0414 49.3074C39.3978 49.1509 40.3108 49.0987 40.7803 49.1509L40.8586 49.0726C41.0151 48.9683 41.2499 48.9161 41.5629 48.9161C41.8237 48.9161 42.1628 48.9683 42.5802 49.0726C42.8932 48.9161 43.2584 48.8379 43.6758 48.8379C43.9366 48.8379 44.1714 48.864 44.3801 48.9161C44.6409 48.9161 44.8757 48.9422 45.0844 48.9944C45.1887 48.9422 45.3453 48.9161 45.5539 48.9161C45.867 48.9161 46.18 48.9683 46.493 49.0726C46.8582 49.1248 47.1451 49.177 47.3538 49.2292C47.5103 49.0726 47.6929 48.9944 47.9016 48.9944C48.2146 48.9944 48.5798 49.0987 48.9972 49.3074C49.0494 49.2031 49.2059 49.1509 49.4667 49.1509C49.7798 49.1509 50.0667 49.2031 50.3275 49.3074C50.6406 49.3596 50.9536 49.4378 51.2666 49.5422L51.4231 49.2292C52.4665 49.4378 53.5882 49.6726 54.7881 49.9335C56.0402 50.1943 57.2402 50.3247 58.3879 50.3247C58.4923 50.3247 58.7792 50.3769 59.2487 50.4812C59.7704 50.5856 60.0313 50.716 60.0313 50.8725C60.0313 50.8204 60.1356 50.7943 60.3443 50.7943C60.553 50.8464 60.9443 50.9247 61.5182 51.029C62.092 51.1334 62.3529 51.2377 62.3007 51.3421C62.3529 51.3421 62.4311 51.3421 62.5355 51.3421C62.6398 51.2899 62.7181 51.2638 62.7703 51.2638C63.3441 51.2638 63.8658 51.3942 64.3354 51.6551C64.8571 51.8638 65.3788 52.0203 65.9005 52.1246V52.0464L66.1353 51.8899C66.3439 51.9942 66.7874 52.1507 67.4656 52.3594C68.1438 52.5159 68.5873 52.5942 68.796 52.5942C69.0046 52.5942 69.109 52.5159 69.109 52.3594L69.422 52.4376L69.6568 52.9072L70.3611 53.0637V52.9854C70.7263 52.4637 71.0393 51.7855 71.3002 50.9508C71.6132 50.0639 71.7697 49.3074 71.7697 48.6814C71.7697 48.1597 71.6393 47.7684 71.3784 47.5075C71.1176 47.1945 70.9871 46.8554 70.9871 46.4902C70.9871 46.438 71.0132 46.4119 71.0654 46.4119L71.3002 46.3337C71.9784 46.438 72.8131 46.5163 73.8043 46.5684C74.8478 46.5684 75.7607 46.725 76.5433 47.038C77.3259 47.351 77.7171 48.0292 77.7171 49.0726C77.7171 49.7509 77.5867 50.4812 77.3259 51.2638C77.1172 51.9942 76.9085 52.6724 76.6998 53.2985C76.8042 53.6115 77.0128 53.8202 77.3259 53.9245C77.6389 54.0288 77.9258 54.1071 78.1867 54.1593L78.3432 53.768L78.6562 53.8463V54.1593L79.1258 53.9245C79.2301 54.1332 79.3605 54.2375 79.517 54.2375C79.6735 54.2375 79.8301 54.2375 79.9866 54.2375H80.2213L80.2996 54.6288C80.3518 54.5766 80.4039 54.5766 80.4561 54.6288L80.5344 54.2375C80.6909 54.2897 80.8213 54.368 80.9256 54.4723C81.03 54.5766 81.1604 54.6549 81.3169 54.7071C81.3691 54.6549 81.3952 54.6549 81.3952 54.7071C81.4474 54.6549 81.5256 54.6288 81.6299 54.6288C81.8386 54.6288 81.9691 54.7071 82.0212 54.8636C82.1256 54.9679 82.2821 55.0462 82.4908 55.0983L82.569 55.1766L82.6473 55.0201L82.882 54.6288C83.1429 54.681 83.4037 54.7592 83.6646 54.8636C83.9776 54.9158 84.2646 54.9679 84.5254 55.0201L84.4472 55.4114H84.5254C84.6298 55.3592 84.8124 55.3331 85.0732 55.3331C85.4906 55.3331 85.8819 55.4114 86.247 55.5679C86.6644 55.6722 87.0818 55.7766 87.4991 55.8809C87.9165 55.9331 88.1252 56.0374 88.1252 56.1939C88.1774 56.2983 88.2817 56.3765 88.4382 56.4287V56.3504C88.7512 56.1939 89.1164 56.1157 89.5338 56.1157C90.3685 56.1157 91.1772 56.22 91.9597 56.4287C92.7423 56.5852 93.5249 56.7417 94.3074 56.8982C94.3596 56.8461 94.49 56.82 94.6987 56.82C94.803 56.82 94.9335 56.8461 95.09 56.8982C95.2987 56.8982 95.4552 56.8982 95.5595 56.8982C96.6551 56.8982 97.9594 56.82 99.4723 56.6635C100.985 56.4548 102.472 56.1678 103.933 55.8027C105.394 55.3853 106.568 54.8636 107.454 54.2375C107.715 54.0289 107.95 53.7941 108.159 53.5332C108.42 53.2724 108.733 53.142 109.098 53.142C108.785 54.3419 108.08 55.4114 106.985 56.3504C105.889 57.2373 104.585 57.9938 103.072 58.6199C101.611 59.2459 100.124 59.7155 98.6115 60.0285C97.1507 60.3415 95.8725 60.498 94.777 60.498C94.4118 60.498 94.0466 60.498 93.6814 60.498C93.3683 60.4458 93.0553 60.3937 92.7423 60.3415C92.3771 60.2372 91.9858 60.2111 91.5685 60.2632C91.1511 60.2632 90.7598 60.2372 90.3946 60.185C90.3424 60.185 90.1859 60.1589 89.9251 60.1067C89.7164 60.0546 89.6121 60.0024 89.6121 59.9502L89.4555 59.872C89.3512 59.9241 89.1947 59.9502 88.986 59.9502C87.2122 59.9502 85.4906 59.6894 83.8211 59.1677C82.1517 58.646 80.4561 58.2808 78.7345 58.0721L78.578 57.9938H78.4997C78.3954 57.8895 78.2128 57.7851 77.9519 57.6808C77.6911 57.5765 77.4563 57.4982 77.2476 57.446L76.9346 57.5243C76.7781 57.5243 76.3868 57.4982 75.7607 57.446C75.1347 57.3417 74.8478 57.1591 74.8999 56.8982C74.7434 57.0547 74.4304 57.5504 73.9609 58.3851C73.4913 59.1677 72.9696 60.0546 72.3957 61.0458C71.8219 62.037 71.3002 62.8979 70.8306 63.6283C70.3611 64.3586 70.022 64.6978 69.8133 64.6456C69.7611 64.9586 69.5264 65.4281 69.109 66.0542C68.6916 66.6281 68.2482 67.1759 67.7786 67.6976C67.3091 68.1671 66.9178 68.428 66.6048 68.4801L66.37 68.5584H66.2918V68.7149C66.2918 68.8714 66.2396 69.054 66.1353 69.2627C66.0309 69.4192 65.8744 69.4714 65.6657 69.4192C65.5614 70.0452 65.1179 70.6452 64.3354 71.2191C63.605 71.793 63.1876 72.3929 63.0833 73.019C63.2398 73.019 63.3963 73.019 63.5528 73.019C63.7093 72.9668 63.8919 72.9407 64.1006 72.9407C64.9875 72.9407 65.8744 72.9668 66.7613 73.019C67.6482 73.019 68.5351 73.019 69.422 73.019C70.1524 73.019 70.9089 73.0972 71.6914 73.2537C72.474 73.4102 73.2044 73.5407 73.8826 73.645C73.9869 73.5928 74.1435 73.5668 74.3521 73.5668C74.4043 73.5668 74.4304 73.5928 74.4304 73.645L74.3521 74.5058C73.9869 74.4537 73.5696 74.4276 73.1 74.4276C72.6827 74.3754 72.2653 74.3493 71.8479 74.3493C70.961 74.3493 69.7872 74.4537 68.3264 74.6623C66.8657 74.871 65.431 75.0797 64.0223 75.2884C62.6659 75.4449 61.7008 75.4971 61.1269 75.4449C61.0747 75.6014 60.8399 75.8623 60.4226 76.2275C60.0052 76.5927 59.6922 76.8535 59.4835 77.01V77.1665C59.64 77.323 59.7183 77.4274 59.7183 77.4796C59.7183 77.6361 59.5357 77.7143 59.1705 77.7143C58.8575 77.6622 58.6749 77.6882 58.6227 77.7926C58.4662 78.2621 58.2314 78.7056 57.9184 79.1229C57.6575 79.4881 57.2141 79.6186 56.588 79.5142L56.5098 79.749L56.7445 80.1403C56.3793 80.1403 55.9881 80.3489 55.5707 80.7663C55.2055 81.1315 54.9447 81.4706 54.7881 81.7836L54.6316 81.9402L54.3969 82.0184V82.0967C54.3969 82.3053 54.1099 82.6966 53.536 83.2705C52.9622 83.7922 52.2579 84.3661 51.4231 84.9921C50.6406 85.566 49.8841 86.0877 49.1537 86.5573C48.4755 86.9746 47.9799 87.2094 47.6668 87.2616H47.5886V87.3398C47.5886 87.4963 47.1973 87.7833 46.4148 88.2006C45.6322 88.618 44.8235 89.0875 43.9888 89.6092C43.1541 90.1309 42.6063 90.6266 42.3454 91.0961C41.9802 91.357 41.5107 91.5656 40.9368 91.7222C40.4151 91.8265 40.0499 92.0613 39.8412 92.4265C39.8412 92.4265 39.8152 92.4525 39.763 92.5047C39.7108 92.5047 39.6847 92.5308 39.6847 92.583C39.163 92.583 38.4848 92.9221 37.6501 93.6003C36.8675 94.2785 36.1893 94.748 35.6154 95.0089C33.5286 96.0001 31.3374 96.9131 29.0419 97.7479C26.7464 98.5826 24.4248 99 22.0771 99Z" fill="#D9FFFF"/>
</svg>
